# xmcd CD database file
#
# Track frame offsets:
#	150
#	21500
#	45610
#	59135
#	81417
#	97897
#	115475
#	134852
#	151555
#	168965
#	182545
#	201995
#
# Disc length: 3001 seconds
#
# Revision: 0
# Processed by: cddbd v1.5.1PL2 Copyright (c) Steve Scherf et al.
# Submitted via: CDex 1.50
#
DISCID=a80bb70c
DTITLE=Plan B. - sundownsongs
DYEAR=1900
DGENRE=Jazz
TTITLE0=Night and day
TTITLE1=Loverman
TTITLE2=Route 66
TTITLE3=You´ve got a friend
TTITLE4=Just the two of us
TTITLE5=Summertime
TTITLE6=Fly me to the moon
TTITLE7=Girl from Ipanema
TTITLE8=I wish
TTITLE9=Masquenada
TTITLE10=Your song
TTITLE11=Get here
EXTD=
EXTT0=
EXTT1=
EXTT2=
EXTT3=
EXTT4=
EXTT5=
EXTT6=
EXTT7=
EXTT8=
EXTT9=
EXTT10=
EXTT11=
PLAYORDER=
